<?xml version="1.0" encoding="utf-8"?>
<!-- Generator: Adobe Illustrator 19.0.0, SVG Export Plug-In . SVG Version: 6.00 Build 0)  -->
<svg version="1.1" id="Capa_1" xmlns="http://www.w3.org/2000/svg" xmlns:xlink="http://www.w3.org/1999/xlink" x="0px" y="0px"
	 viewBox="-119 337.6 551.4 551.4" style="enable-background:new -119 337.6 551.4 551.4;" xml:space="preserve">
<style type="text/css">
	.st0{fill:#F70052;}
	.st1{fill:#FFFFFF;}
	.st2{fill:#00BFFE;}
</style>
<polygon class="st0" points="333.6,736.1 204.3,578.3 175.4,602 280.7,730.5 134.3,851.2 158.3,880.2 304.5,759.6 304.7,759.8 "/>
<polygon class="st1" points="155.1,535.1 128.1,501.5 -41.9,638.4 -14.9,672 -14.6,671.7 111.6,823.6 145.1,795.7 19.4,644.4 "/>
<rect x="-121.1" y="481" transform="matrix(-0.7816 0.6238 -0.6238 -0.7816 334.1363 889.5188)" class="st1" width="264.8" height="44.5"/>
<polygon class="st2" points="306,530.9 156.1,353.2 127.8,377 252.1,524.3 119.3,632 144.3,662.8 "/>
<g>
	<path class="st2" d="M315.6,511.1c1.7-5.2,3.6-10.4,5.4-15.6c3.4-9.7,7.4-19.7,12.1-29.3c3.4-7,9-14.7,15.7-19
		c6-3.9,12.8-5.7,18.2-4.6c2.8,0.6,6.1,1.8,8.1,3.7c2,1.8,3.3,5.3,4.1,8c1,2.9,1.3,6.3,0.6,9.9c-1.5,8.3-7.7,16-15,21.5
		c-7.7,5.8-16.5,10.2-24.7,14.2c-6.8,3.3-13.7,6.6-20.6,9.6C319.2,509.6,315.7,510.8,315.6,511.1z"/>
	<path class="st2" d="M327.2,529.2c5.4-3,11-5.7,16.6-8.6c10.3-5.3,21.4-10.3,32.6-14.6c8.2-3.1,18.7-5,27.6-3.4
		c7.9,1.4,14.9,5.3,18.4,10.4c1.9,2.7,3.6,6.3,3.8,9.3c0.2,3-1.5,6.9-2.8,9.7c-1.5,3.1-3.9,6.1-7.2,8.5c-7.7,5.6-18.7,7.1-29,5.9
		c-10.9-1.2-21.4-4.4-31.2-7.6c-8.2-2.6-16.3-5.2-24.2-8.2C331.3,530.8,327.5,529.1,327.2,529.2z"/>
	<path class="st2" d="M319.9,551.3c5.4,1.1,10.7,2.5,16.1,3.8c10,2.4,20.4,5.4,30.4,9c7.3,2.6,15.5,7.5,20.5,13.7
		c4.5,5.6,7,12.1,6.4,17.7c-0.3,2.9-1.2,6.3-2.8,8.5c-1.6,2.1-5,3.8-7.5,4.9c-2.8,1.3-6.1,1.9-9.8,1.6c-8.4-0.7-16.7-6.1-22.9-12.8
		c-6.6-7.1-11.8-15.3-16.7-23.2c-4-6.5-8-13-11.6-19.5C321.8,554.7,320.2,551.3,319.9,551.3z"/>
</g>
</svg>
